# xmcd
#
# Track frame offsets: 
#        150
#        16528
#        39314
#        56421
#        80173
#        101351
#        118213
#        127978
#        148827
#        164203
#        184295
#        202736
#        218500
#        237778
#        257976
#        274989
#        292827
#
# Disc length: 4198 seconds
#
# Revision: 0
# Processed by: cddbd v1.5.2PL0 Copyright (c) Steve Scherf et al.
# Submitted via: ExactAudioCopy v1.2
#
DISCID=f3106411
DTITLE=Billy Flynn - Lonesome Highway
DYEAR=2017
DGENRE=Blues
TTITLE0=Good Navigator
TTITLE1=If It Wasn't for the Blues
TTITLE2=Small Town
TTITLE3=Lonesome Highway
TTITLE4=The 'In' Crowd
TTITLE5=Never Had a Chance
TTITLE6=Waiting Game
TTITLE7=Hold On
TTITLE8=The Lucky Kind
TTITLE9=Jackson Street
TTITLE10=Long Long Time
TTITLE11=The Right Track
TTITLE12=You Are My Lover
TTITLE13=I Feel 'Um
TTITLE14=Blues Express
TTITLE15=Sufferin' With the Blues
TTITLE16=Christmas Blues
EXTD=
EXTT0=
EXTT1=
EXTT2=
EXTT3=
EXTT4=
EXTT5=
EXTT6=
EXTT7=
EXTT8=
EXTT9=
EXTT10=
EXTT11=
EXTT12=
EXTT13=
EXTT14=
EXTT15=
EXTT16=
PLAYORDER=
